<svg width="14" height="14" viewBox="0 0 14 14" fill="none" xmlns="http://www.w3.org/2000/svg">
<path d="M6.60862 0.0890369C6.48776 -0.0277151 6.29513 -0.0243492 6.17838 0.0965104C6.06451 0.214432 6.06451 0.401355 6.17838 0.519248L12.6568 6.99826L6.17778 13.4767C6.05692 13.5934 6.05356 13.786 6.17031 13.9069C6.28706 14.0278 6.47966 14.0311 6.60055 13.9144C6.60309 13.9119 6.60557 13.9094 6.60802 13.9069L13.3019 7.21308C13.4206 7.09427 13.4206 6.90167 13.3019 6.78284L6.60862 0.0890369Z" fill="white"/>
<path d="M7.82596 6.78287L1.13211 0.0890369C1.01125 -0.0277151 0.818626 -0.0243492 0.701874 0.0965104C0.588003 0.214432 0.588003 0.401355 0.701874 0.519276L7.1803 6.99828L0.701275 13.4767C0.580415 13.5934 0.577078 13.786 0.693802 13.9069C0.810554 14.0278 1.00315 14.0311 1.12404 13.9144C1.12658 13.9119 1.12906 13.9094 1.13152 13.9069L7.82536 7.21308C7.94428 7.09444 7.94456 6.90184 7.82596 6.78287Z" fill="white"/>
<path d="M6.39353 13.9968C6.22549 13.9971 6.08903 13.8611 6.08872 13.693C6.08857 13.612 6.12042 13.5339 6.17778 13.4767L12.6568 6.99826L6.17811 0.520244C6.06136 0.399384 6.06473 0.206756 6.18559 0.0900037C6.30351 -0.0238675 6.49043 -0.0238675 6.60833 0.0900037L13.3022 6.78385C13.4209 6.90265 13.4209 7.09525 13.3022 7.21409L6.60836 13.9079C6.55133 13.9648 6.47409 13.9968 6.39353 13.9968Z" fill="white"/>
<path d="M0.916648 13.9968C0.748609 13.9971 0.612146 13.8611 0.611832 13.693C0.611689 13.612 0.643912 13.5339 0.701275 13.4767L7.1803 6.99828L0.701229 0.520269C0.582252 0.401292 0.582252 0.208407 0.701229 0.0894294C0.820206 -0.0295478 1.01314 -0.0299403 1.13211 0.0890369L7.82596 6.78287C7.94456 6.90184 7.94428 7.09444 7.82536 7.21308L1.13152 13.9069C1.07444 13.9642 0.997488 13.9968 0.916648 13.9968Z" fill="white"/>
</svg>
